<svg width="20" height="20" viewBox="0 0 20 20" fill="none" xmlns="http://www.w3.org/2000/svg">
<path d="M1 1V15C1 16.8856 1 17.8284 1.58579 18.4142C2.17157 19 3.11438 19 5 19H19M18 15L17.5017 13.6711C17.2129 12.9009 17.0685 12.5159 16.8485 12.3429C16.5582 12.1146 16.1657 12.0649 15.8277 12.2136C15.5716 12.3263 15.3358 12.6632 14.8641 13.337V13.337C14.3362 14.0912 14.0722 14.4683 13.8002 14.5796C13.4412 14.7265 13.0297 14.6525 12.7443 14.3899C12.5281 14.1909 12.4119 13.7455 12.1795 12.8547L10.8943 7.92834C10.6655 7.05106 10.5511 6.61242 10.3613 6.42117C10.041 6.09841 9.54334 6.03233 9.14996 6.26036C8.91687 6.39547 8.69196 6.78906 8.24214 7.57625V7.57625C7.68679 8.54813 7.40911 9.03406 7.15506 9.16981C6.72547 9.39937 6.19298 9.28602 5.89413 8.9014C5.7174 8.67395 5.6617 8.11705 5.55032 7.00324L5 1.5" stroke="white" stroke-width="2" stroke-linecap="round" stroke-linejoin="round"/>
</svg>
