<svg width="16" height="20" viewBox="0 0 16 20" fill="none" xmlns="http://www.w3.org/2000/svg">
<path d="M1 7.5L2.08702 15.5362C2.31029 17.1868 2.42192 18.012 2.98722 18.506C3.55252 19 4.38532 19 6.05092 19H9.94908C11.6147 19 12.4475 19 13.0128 18.506C13.5781 18.012 13.6897 17.1868 13.913 15.5362L15 7.5" stroke="currentColor" stroke-width="2" stroke-linecap="round" stroke-linejoin="round"/>
<path d="M5 4V4C5 3.06812 5 2.60218 5.15224 2.23463C5.35523 1.74458 5.74458 1.35523 6.23463 1.15224C6.60218 1 7.06812 1 8 1V1C8.93188 1 9.39782 1 9.76537 1.15224C10.2554 1.35523 10.6448 1.74458 10.8478 2.23463C11 2.60218 11 3.06812 11 4V4" stroke="currentColor" stroke-width="2" stroke-linecap="round" stroke-linejoin="round"/>
<path d="M15 4L1 4" stroke="currentColor" stroke-width="2" stroke-linecap="round" stroke-linejoin="round"/>
</svg>
