
<svg width="20" height="20" viewBox="0 0 20 20" fill="none" xmlns="http://www.w3.org/2000/svg">
<path d="M9.58333 16V16C7.99527 16.693 7.20124 17.0395 6.56381 16.897C6.0905 16.7912 5.67174 16.5171 5.3855 16.1256C5 15.5983 5 14.732 5 12.9993V12.1818V10.2918C5 8.38596 5 7.43303 5.49007 6.68448C5.98014 5.93594 6.85354 5.55482 8.60033 4.79258L11.3338 3.59978C12.1002 3.26536 12.4834 3.09816 12.7908 3.06582C13.7356 2.96644 14.6199 3.54541 14.9067 4.45112C15 4.74577 15 5.16385 15 6V6" stroke="white" stroke-width="2"/>
<path d="M5.5 14V14C4.00006 14.6666 3.2501 15 2.64468 14.8907C2.11589 14.7952 1.64776 14.491 1.34576 14.0465C1 13.5377 1 12.717 1 11.0756V10.1818V8.29182C1 6.38596 1 5.43303 1.49007 4.68448C1.98014 3.93594 2.85354 3.55482 4.60033 2.79258L6 2.18182L7.33384 1.59978C8.10021 1.26536 8.48339 1.09816 8.79077 1.06582C9.73558 0.966436 10.6199 1.54541 10.9067 2.45112C11 2.74577 11 3.16385 11 4V4" stroke="white" stroke-width="2"/>
<path d="M19 11.7082V9.4553C19 7.30785 19 6.23413 18.4235 5.64998C18.2239 5.44773 17.9835 5.29034 17.7183 5.18829C16.9523 4.89353 15.9682 5.32296 14 6.18182L12.6003 6.79258C10.8535 7.55482 9.98014 7.93594 9.49007 8.68448C9 9.43303 9 10.386 9 12.2918V14.1818C9 16.6653 9 17.907 9.75138 18.5075C9.84996 18.5863 9.95578 18.6556 10.0674 18.7144C10.9183 19.1629 12.0564 18.6663 14.3326 17.6731L15.3997 17.2074C17.1465 16.4452 18.0199 16.0641 18.5099 15.3155C19 14.567 19 13.614 19 11.7082Z" stroke="white" stroke-width="2"/>
</svg>
