
<svg width="18" height="20" viewBox="0 0 18 20" fill="none" xmlns="http://www.w3.org/2000/svg">
<path d="M5 5L13 5M5 9.49997L8.5 9.49997M12 9.49997L13 9.49997M5 14L7 14M12 14L13 14" stroke="white" stroke-width="2" stroke-linecap="round"/>
<path d="M3.66624 18.058C2.45215 18.4869 1.84511 18.7014 1.42256 18.4025C1 18.1036 1 17.4598 1 16.1722L1 5.00001C0.999999 3.11439 0.999999 2.17158 1.58579 1.58579C2.17158 1 3.11439 1.00001 5.00001 1.00001L13 1.00004C14.8856 1.00005 15.8284 1.00005 16.4142 1.58584C17 2.17162 17 3.11443 17 5.00004L17 16.1722C17 17.4599 17 18.1037 16.5774 18.4025C16.1549 18.7014 15.5478 18.4869 14.3337 18.058L14.2049 18.0125C13.8073 17.872 13.6085 17.8018 13.4041 17.815C13.1997 17.8282 13.0116 17.9234 12.6353 18.1139L11.8293 18.5219C11.4207 18.7288 11.2164 18.8322 11.0005 18.8415C10.9301 18.8445 10.8597 18.8401 10.7903 18.8283C10.5772 18.7922 10.3874 18.664 10.0078 18.4078V18.4078C9.57491 18.1156 9.35846 17.9695 9.11763 17.941C9.03948 17.9317 8.9605 17.9317 8.88235 17.941C8.64152 17.9695 8.42507 18.1156 7.99215 18.4078V18.4078C7.61256 18.664 7.42277 18.7922 7.20969 18.8283C7.14029 18.8401 7.06983 18.8445 6.99951 18.8415C6.78358 18.8322 6.57928 18.7288 6.17068 18.5219L5.36464 18.1139C4.98842 17.9234 4.80031 17.8282 4.59588 17.815C4.39145 17.8018 4.19266 17.872 3.79506 18.0125L3.66624 18.058Z" stroke="white" stroke-width="2"/>
</svg>
