
<svg width="20" height="16" viewBox="0 0 20 16" fill="none" xmlns="http://www.w3.org/2000/svg">
<path d="M1 5C1 3.11438 1 2.17157 1.58579 1.58579C2.17157 1 3.11438 1 5 1H7C8.88562 1 9.82843 1 10.4142 1.58579C11 2.17157 11 3.11438 11 5V8C11 9.88562 11 10.8284 10.4142 11.4142C9.82843 12 8.88562 12 7 12H5C3.11438 12 2.17157 12 1.58579 11.4142C1 10.8284 1 9.88562 1 8V5Z" stroke="white" stroke-width="2"/>
<path d="M11 4H13.9076C14.861 4 15.3377 4 15.7511 4.20063C16.1646 4.40125 16.4596 4.77567 17.0496 5.52451L18.3628 7.19127C18.5685 7.45237 18.6714 7.58292 18.7499 7.72488C18.8611 7.92576 18.9368 8.14427 18.9738 8.37085C19 8.53098 19 8.69718 19 9.02958V9.02958C19 9.9337 19 10.3858 18.8565 10.7439C18.6532 11.2512 18.2512 11.6532 17.7439 11.8565C17.3858 12 16.9337 12 16.0296 12H15C13.1144 12 12.1716 12 11.5858 11.4142C11 10.8284 11 9.88562 11 8V4Z" stroke="white" stroke-width="2"/>
<path d="M18 12C18 13.6569 16.6569 15 15 15C13.3431 15 12 13.6569 12 12H8C8 13.6569 6.65685 15 5 15C3.34315 15 2 13.6569 2 12" stroke="white" stroke-width="2"/>
</svg>
